<svg width="20" height="20" viewBox="0 0 20 20" fill="none" xmlns="http://www.w3.org/2000/svg">
<path d="M16.4917 12.4417C14.775 14.15 12.3167 14.675 10.1583 14L6.23334 17.9167C5.95001 18.2083 5.39168 18.3833 4.99168 18.325L3.17501 18.075C2.57501 17.9917 2.01668 17.425 1.92501 16.825L1.67501 15.0083C1.61668 14.6083 1.80834 14.05 2.08334 13.7667L6.00001 9.85C5.33334 7.68333 5.85001 5.225 7.56668 3.51666C10.025 1.05833 14.0167 1.05833 16.4833 3.51666C18.95 5.975 18.95 9.98333 16.4917 12.4417Z" stroke="#121212" stroke-opacity="0.6" stroke-width="1.5" stroke-miterlimit="10" stroke-linecap="round" stroke-linejoin="round"/>
<path d="M5.74167 14.575L7.65833 16.4917" stroke="#121212" stroke-opacity="0.6" stroke-width="1.5" stroke-miterlimit="10" stroke-linecap="round" stroke-linejoin="round"/>
<path d="M12.0833 9.16666C12.7737 9.16666 13.3333 8.60701 13.3333 7.91666C13.3333 7.2263 12.7737 6.66666 12.0833 6.66666C11.393 6.66666 10.8333 7.2263 10.8333 7.91666C10.8333 8.60701 11.393 9.16666 12.0833 9.16666Z" stroke="#121212" stroke-opacity="0.6" stroke-width="1.5" stroke-linecap="round" stroke-linejoin="round"/>
</svg>
